<svg width="113" height="33" viewBox="0 0 113 33" fill="none" xmlns="http://www.w3.org/2000/svg">
<path d="M13.9531 21.2742V5.48086C13.9531 5.25031 14.0692 5.0357 14.2619 4.90824L18.225 2.29538C18.5301 2.09436 18.9371 2.31225 18.9371 2.67681V21.2737C18.9371 21.4602 18.7857 21.6111 18.5987 21.6111H14.292C14.1049 21.6111 13.9536 21.4602 13.9536 21.2737L13.9531 21.2742Z" fill="white"/>
<path d="M25.921 11.5014V27.4822C25.921 27.5956 25.8641 27.7011 25.7692 27.7638L21.4625 30.603C21.2374 30.7516 20.9375 30.5904 20.9375 30.3214V11.5014C20.9375 11.3149 21.0888 11.1641 21.2759 11.1641H25.5826C25.7697 11.1641 25.921 11.3149 25.921 11.5014Z" fill="white"/>
<path d="M46.6233 11.2617V21.4282H44.7296V17.0708H39.4562V21.4282H37.5625V11.2617H39.4562V15.4589H44.7296V11.2617H46.6233Z" fill="white"/>
<path d="M59.4582 14.8739C59.4582 17.1105 57.7972 18.4905 55.1172 18.4905H52.8155V21.4243H50.9219V11.2578H55.1176C57.7981 11.2578 59.4586 12.6228 59.4586 14.8744L59.4582 14.8739ZM57.5499 14.8739C57.5499 13.5956 56.6908 12.8552 55.0297 12.8552H52.8155V16.8926H55.0297C56.6908 16.8926 57.5499 16.1518 57.5499 14.8739Z" fill="white"/>
<path d="M68.3306 18.1244H62.2266C62.4451 19.2574 63.3917 19.9833 64.7472 19.9833C65.6205 19.9833 66.3053 19.7073 66.859 19.1408L67.8352 20.2593C67.1368 21.0873 66.0435 21.5231 64.7035 21.5231C62.0959 21.5231 60.4062 19.8525 60.4062 17.5433C60.4062 15.2341 62.111 13.5781 64.4272 13.5781C66.7434 13.5781 68.3602 15.161 68.3602 17.5869C68.3602 17.7322 68.3456 17.9501 68.3315 18.1244H68.3306ZM62.212 16.9192H66.6263C66.4802 15.8006 65.6205 15.0308 64.4262 15.0308C63.2319 15.0308 62.3869 15.7861 62.212 16.9192Z" fill="white"/>
<path d="M69.375 17.5433C69.375 15.2196 71.1234 13.5781 73.5125 13.5781C75.9015 13.5781 77.6636 15.2191 77.6636 17.5433C77.6636 19.8675 75.9307 21.5231 73.5125 21.5231C71.0943 21.5231 69.375 19.8671 69.375 17.5433ZM75.8287 17.5433C75.8287 16.0616 74.8384 15.1179 73.5125 15.1179C72.1866 15.1179 71.2109 16.0621 71.2109 17.5433C71.2109 19.0245 72.2012 19.9687 73.5125 19.9687C74.8238 19.9687 75.8287 19.025 75.8287 17.5433Z" fill="white"/>
<path d="M87.5568 17.5429C87.5568 19.9538 85.8812 21.5226 83.6083 21.5226C82.618 21.5226 81.7437 21.1885 81.1172 20.4767V24.2385H79.2969V13.6653H81.0298V14.6821C81.6417 13.9413 82.5446 13.5781 83.6083 13.5781C85.8812 13.5781 87.5568 15.1465 87.5568 17.5433V17.5429ZM85.7064 17.5429C85.7064 16.0612 84.7161 15.1174 83.4047 15.1174C82.0934 15.1174 81.0885 16.0617 81.0885 17.5429C81.0885 19.0241 82.0934 19.9683 83.4047 19.9683C84.7161 19.9683 85.7064 19.0245 85.7064 17.5429Z" fill="white"/>
<path d="M89.1875 10.6484H91.0088V21.4251H89.1875V10.6484Z" fill="white"/>
<path d="M100.581 18.1244H94.4766C94.6956 19.2574 95.6427 19.9833 96.9972 19.9833C97.8715 19.9833 98.5553 19.7073 99.1099 19.1408L100.086 20.2593C99.3868 21.0873 98.2935 21.5231 96.9535 21.5231C94.3464 21.5231 92.6562 19.8525 92.6562 17.5433C92.6562 15.2341 94.3605 13.5781 96.6767 13.5781C98.9929 13.5781 100.611 15.161 100.611 17.5869C100.611 17.7322 100.595 17.9501 100.581 18.1244H100.581ZM94.462 16.9192H98.8763C98.7302 15.8006 97.8715 15.0308 96.6762 15.0308C95.481 15.0308 94.6369 15.7861 94.462 16.9192Z" fill="white"/>
<path d="M32.9035 11.5014V18.1451C32.9035 18.2585 32.8466 18.3639 32.7517 18.4267L28.4469 21.264C28.2217 21.4126 27.9219 21.2514 27.9219 20.9824V11.5014C27.9219 11.3149 28.0732 11.1641 28.2603 11.1641H32.5651C32.7521 11.1641 32.9035 11.3149 32.9035 11.5014Z" fill="white"/>
</svg>
