<svg width="112" height="33" viewBox="0 0 112 33" fill="none" xmlns="http://www.w3.org/2000/svg">
<path d="M36.8107 22.0156H33.8131C33.7468 22.0156 33.6945 22.036 33.6537 22.0756C33.6129 22.1164 33.5938 22.1686 33.5938 22.2349C33.5938 22.2936 33.6142 22.3433 33.6537 22.3854C33.6945 22.4275 33.7468 22.4479 33.8131 22.4479H35.0741V26.0601C35.0741 26.1252 35.0971 26.1813 35.143 26.2272C35.1889 26.2731 35.245 26.296 35.31 26.296C35.3801 26.296 35.4362 26.2731 35.4796 26.2272C35.5229 26.1813 35.5459 26.1252 35.5459 26.0601V22.4479H36.812C36.8783 22.4479 36.9306 22.4262 36.9714 22.3854C37.0122 22.3433 37.0313 22.2936 37.0313 22.2349C37.0313 22.1699 37.0109 22.1164 36.9714 22.0756C36.9319 22.0348 36.8783 22.0156 36.812 22.0156H36.8107Z" fill="white"/>
<path d="M43.2961 22.175C43.2553 22.0692 43.1827 22.0156 43.0768 22.0156C42.971 22.0156 42.8945 22.0679 42.846 22.175L41.256 25.9568C41.2229 26.0333 41.228 26.1086 41.2701 26.1838C41.3121 26.259 41.3784 26.296 41.4702 26.296C41.5136 26.296 41.5557 26.2845 41.5965 26.2603C41.6373 26.2374 41.6653 26.2017 41.6845 26.1532L42.0389 25.2976H44.1096L44.459 26.1532C44.4807 26.1966 44.5125 26.2323 44.5521 26.2565C44.5916 26.282 44.6362 26.2947 44.6834 26.2947C44.7676 26.2947 44.8326 26.259 44.8785 26.1876C44.9244 26.1162 44.9282 26.041 44.8925 25.9607L43.2974 22.1737L43.2961 22.175ZM42.2047 24.8985L43.0819 22.7807L43.9464 24.8985H42.2047Z" fill="white"/>
<path d="M52.5498 25.8408H50.4561V22.2515C50.4561 22.1852 50.4332 22.1304 50.3873 22.0845C50.3414 22.0386 50.2853 22.0156 50.2203 22.0156C50.1552 22.0156 50.0991 22.0386 50.0532 22.0845C50.0073 22.1304 49.9844 22.1852 49.9844 22.2515V26.0614C49.9844 26.1303 50.0073 26.1876 50.0532 26.231C50.0991 26.2743 50.154 26.296 50.2203 26.296H52.5498C52.6161 26.296 52.6709 26.2743 52.7168 26.231C52.7627 26.1876 52.7857 26.1315 52.7857 26.0665C52.7857 26.004 52.7627 25.9517 52.7168 25.9071C52.6709 25.8638 52.6161 25.8408 52.5498 25.8408Z" fill="white"/>
<path d="M60.7159 22.4593C60.7822 22.4593 60.837 22.4377 60.8803 22.3956C60.9237 22.3535 60.9454 22.3012 60.9454 22.24C60.9454 22.1737 60.9237 22.1202 60.8803 22.0781C60.8357 22.036 60.7822 22.0156 60.7159 22.0156H58.1734C58.1033 22.0156 58.0472 22.0373 58.0038 22.0807C57.9605 22.124 57.9375 22.1814 57.9375 22.2502V26.0601C57.9375 26.129 57.9592 26.1864 58.0038 26.2297C58.0472 26.2731 58.1045 26.2947 58.1734 26.2947H60.7159C60.7822 26.2947 60.837 26.2731 60.8803 26.231C60.9237 26.1889 60.9454 26.1354 60.9454 26.0691C60.9454 26.0066 60.9237 25.9543 60.8803 25.9122C60.8357 25.8701 60.7822 25.8497 60.7159 25.8497H58.408V24.3643H60.0796C60.1485 24.3643 60.2058 24.3439 60.2492 24.3018C60.2925 24.2597 60.3155 24.2062 60.3155 24.1399C60.3155 24.0774 60.2938 24.0251 60.2492 23.9805C60.2046 23.9359 60.1485 23.9155 60.0796 23.9155H58.408V22.4581H60.7159V22.4593Z" fill="white"/>
<path d="M69.3892 22.0169C69.3203 22.0169 69.2629 22.0386 69.2196 22.0819C69.1762 22.1253 69.1533 22.1827 69.1533 22.2515V25.4634L66.6044 22.1036C66.5573 22.045 66.4961 22.0156 66.4234 22.0156C66.3507 22.0156 66.2972 22.0373 66.2538 22.0807C66.2105 22.124 66.1875 22.1814 66.1875 22.2502V26.0601C66.1875 26.129 66.2092 26.1864 66.2538 26.2297C66.2972 26.2731 66.3545 26.2947 66.4234 26.2947C66.4897 26.2947 66.5445 26.2731 66.5904 26.2297C66.6363 26.1864 66.6593 26.129 66.6593 26.0601V22.8533L69.2081 26.2131C69.2298 26.2425 69.2579 26.2629 69.2897 26.2756C69.3229 26.2884 69.356 26.2947 69.3879 26.2947C69.4542 26.2947 69.509 26.2731 69.5549 26.2297C69.6008 26.1864 69.6238 26.129 69.6238 26.0601V22.2502C69.6238 22.1814 69.6008 22.124 69.5549 22.0807C69.509 22.0373 69.4529 22.0156 69.3879 22.0156L69.3892 22.0169Z" fill="white"/>
<path d="M77.9201 22.0156H74.9224C74.8561 22.0156 74.8039 22.036 74.7631 22.0756C74.7223 22.1164 74.7031 22.1686 74.7031 22.2349C74.7031 22.2936 74.7235 22.3433 74.7631 22.3854C74.8039 22.4275 74.8561 22.4479 74.9224 22.4479H76.1835V26.0601C76.1835 26.1252 76.2064 26.1813 76.2523 26.2272C76.2982 26.2731 76.3543 26.296 76.4194 26.296C76.4882 26.296 76.5456 26.2731 76.5889 26.2272C76.6323 26.1813 76.6552 26.1252 76.6552 26.0601V22.4479H77.9214C77.9877 22.4479 78.04 22.4262 78.0808 22.3854C78.1216 22.3433 78.1407 22.2936 78.1407 22.2349C78.1407 22.1699 78.1203 22.1164 78.0808 22.0756C78.04 22.0348 77.9877 22.0156 77.9214 22.0156H77.9201Z" fill="white"/>
<path d="M49.9192 17.4078C49.7675 17.4078 49.5469 17.2816 49.5469 17.0827V6.58637C49.5469 6.39129 49.7101 6.23828 49.9192 6.23828H53.599C55.9592 6.23828 57.1552 7.36926 57.1552 9.60062V14.5823C57.1552 15.9441 56.0573 17.4091 53.6475 17.4091H49.9192V17.4078ZM53.6475 16.6861C55.0194 16.6861 56.4093 15.9632 56.4093 14.581V9.59935C56.4093 7.79003 55.5422 6.98292 53.599 6.98292H50.2915V16.6861H53.6475Z" fill="white"/>
<path d="M75.5263 17.5353C74.5777 17.506 73.8382 17.1605 73.4811 16.9565C73.0591 16.6976 72.507 16.2832 72.2673 15.7643C72.2176 15.6291 72.2316 15.5029 72.3055 15.4009C72.3769 15.3027 72.4917 15.2453 72.6141 15.2492C72.7136 15.2517 72.8066 15.2951 72.878 15.3703L72.887 15.3805L72.9061 15.406C73.1547 15.8561 74.1123 16.769 75.548 16.8137C76.3347 16.8379 77.6978 16.6147 77.9847 14.8462C78.1504 13.7204 77.4785 12.9209 75.5927 11.9965L74.9475 11.6854C73.3893 10.9458 72.0442 10.307 72.0952 8.64433C72.1207 7.80916 72.521 7.13083 73.2848 6.62718C73.8713 6.27016 74.6695 6.0891 75.5365 6.11588C77.1176 6.16433 77.8699 7.1372 78.1912 7.55287C78.2818 7.67273 78.2983 7.81681 78.2359 7.93922C78.1708 8.06545 78.0293 8.14323 77.8763 8.13813C77.8227 8.13685 77.7692 8.12538 77.7182 8.1037L77.6583 8.0782L77.6187 8.0272C77.3076 7.62428 76.7287 6.87581 75.5162 6.83884C74.8506 6.81844 74.185 6.97017 73.6915 7.25578C73.3868 7.44067 72.8678 7.87036 72.8436 8.66855C72.8066 9.86966 73.8394 10.3504 75.2688 11.0159L75.9127 11.3016C77.5473 12.1533 79.0136 13.1836 78.7268 14.9597C78.5648 15.9096 78.139 16.6096 77.4606 17.0419C76.7734 17.4792 76.0313 17.5519 75.5289 17.5366L75.5263 17.5353Z" fill="white"/>
<path d="M34.0132 6.24609H33.8959C33.729 6.24609 33.5938 6.38139 33.5938 6.54828V17.102C33.5938 17.2689 33.729 17.4042 33.8959 17.4042H34.0132C34.1801 17.4042 34.3154 17.2689 34.3154 17.102V6.54828C34.3154 6.38139 34.1801 6.24609 34.0132 6.24609Z" fill="white"/>
<path d="M85.3804 6.25H85.2631C85.0962 6.25 84.9609 6.3853 84.9609 6.55219V17.1059C84.9609 17.2728 85.0962 17.4081 85.2631 17.4081H85.3804C85.5473 17.4081 85.6826 17.2728 85.6826 17.1059V6.55219C85.6826 6.3853 85.5473 6.25 85.3804 6.25Z" fill="white"/>
<path d="M81.5078 6.55706V6.67437C81.5078 6.84127 81.6431 6.97656 81.81 6.97656L88.8139 6.97656C88.9808 6.97656 89.1161 6.84127 89.1161 6.67437V6.55706C89.1161 6.39017 88.9808 6.25487 88.8139 6.25487H81.81C81.6431 6.25487 81.5078 6.39017 81.5078 6.55706Z" fill="white"/>
<path d="M107.329 10.0586V17.1008C107.329 17.2665 107.192 17.403 107.026 17.403H106.912C106.746 17.403 106.609 17.2665 106.609 17.1008V10.0586L106.969 10.5304L107.329 10.0586Z" fill="white"/>
<path d="M107.415 11.1181L107.321 11.2418V12.1892L106.961 11.7148L106.602 11.2431L106.507 11.1194L103.219 6.79438C103.116 6.66177 103.144 6.47051 103.276 6.37106L103.367 6.30093C103.499 6.19765 103.691 6.2257 103.794 6.35831L106.6 10.0522L106.96 10.5239L107.319 10.9983L107.414 11.1194L107.415 11.1181Z" fill="white"/>
<path d="M110.696 6.79566L107.408 11.1207L107.313 11.2444L106.954 11.7161L106.594 12.1904V11.2431L106.5 11.1194L106.594 10.9983L106.954 10.5239L107.313 10.0522L110.121 6.35831C110.224 6.2257 110.414 6.19765 110.547 6.30093L110.638 6.37106C110.77 6.47051 110.798 6.66177 110.695 6.79438L110.696 6.79566Z" fill="white"/>
<path d="M38.8545 6.61084C38.8545 6.41156 38.6929 6.25 38.4937 6.25C38.2944 6.25 38.1328 6.41156 38.1328 6.61084V17.0472C38.1328 17.2465 38.2944 17.4081 38.4937 17.4081C38.6929 17.4081 38.8545 17.2465 38.8545 17.0472V6.61084Z" fill="white"/>
<path d="M45.7415 16.9427V17.0485C45.7415 17.2487 45.5783 17.4081 45.3781 17.4081C45.2544 17.4081 45.1447 17.3443 45.0823 17.2512L38.1918 6.8123C38.0834 6.64655 38.1281 6.42213 38.2951 6.30993C38.355 6.2704 38.4252 6.25 38.4953 6.25C38.61 6.25 38.7248 6.30738 38.7949 6.41321L45.0198 15.8474L45.7428 16.9427H45.7415Z" fill="white"/>
<path d="M45.7464 6.60957V17.0447C45.7464 17.2449 45.5832 17.4043 45.383 17.4043C45.2593 17.4043 45.1497 17.3405 45.0872 17.2474C45.0477 17.19 45.0234 17.1199 45.0234 17.0447V6.60957C45.0234 6.40938 45.1866 6.25 45.383 6.25C45.5794 6.25 45.7464 6.41066 45.7464 6.60957Z" fill="white"/>
<path d="M61.6735 6.55219V14.2268H60.9531V6.55219C60.9531 6.38643 61.0896 6.25 61.2553 6.25H61.3701C61.5396 6.25 61.6723 6.38643 61.6723 6.55219H61.6735Z" fill="white"/>
<path d="M68.5642 6.55219V14.2268H67.8438V6.55219C67.8438 6.38643 67.9802 6.25 68.1459 6.25H68.2607C68.4303 6.25 68.5629 6.38643 68.5629 6.55219H68.5642Z" fill="white"/>
<path d="M68.5601 14.2266V14.2291C68.5601 15.9836 67.1359 17.4078 65.3814 17.4078H64.1319C62.3748 17.4078 60.9531 15.9836 60.9531 14.2291V14.2266H61.6735V14.2291C61.6735 15.2275 62.269 16.0869 63.1284 16.4707C63.4369 16.6097 63.7761 16.6849 64.1331 16.6849H65.449C65.7818 16.676 66.0993 16.6007 66.3862 16.4707C67.2417 16.0869 67.8385 15.2275 67.8385 14.2291V14.2266H68.5614H68.5601Z" fill="white"/>
<path d="M96.8088 6.25V6.97296H92.9428C92.7771 6.97296 92.6406 6.83653 92.6406 6.67077V6.55219C92.6406 6.38643 92.7771 6.25 92.9428 6.25H96.8088Z" fill="white"/>
<path d="M96.8088 12.4062V13.1267H92.9428C92.7771 13.1267 92.6406 12.9902 92.6406 12.8245V12.7097C92.6406 12.5401 92.7771 12.4075 92.9428 12.4075H96.8088V12.4062Z" fill="white"/>
<path d="M93.0601 6.25H92.9428C92.7759 6.25 92.6406 6.3853 92.6406 6.55219V17.1059C92.6406 17.2728 92.7759 17.4081 92.9428 17.4081H93.0601C93.227 17.4081 93.3623 17.2728 93.3623 17.1059V6.55219C93.3623 6.3853 93.227 6.25 93.0601 6.25Z" fill="white"/>
<path d="M99.5882 17.3186L99.4887 17.3734C99.3433 17.455 99.1559 17.404 99.0769 17.2587L96.7779 13.1326L96.5752 12.7692L96.375 12.4121H96.8111V12.4096C96.9386 12.4096 97.0623 12.4007 97.1859 12.3828L97.3887 12.7462L97.5583 13.0522L99.7029 16.9093C99.7871 17.0546 99.7361 17.2395 99.5882 17.3211V17.3186Z" fill="white"/>
<path d="M100.251 9.68885C100.251 11.3311 99.0987 12.7044 97.5597 13.0461C97.3212 13.1009 97.0701 13.1277 96.8125 13.1277V12.4047C96.94 12.4047 97.0637 12.3958 97.1874 12.378C98.5096 12.1969 99.5284 11.0621 99.5284 9.68885C99.5284 8.1881 98.312 6.97296 96.8125 6.97296V6.25C98.7123 6.25 100.251 7.789 100.251 9.68885Z" fill="white"/>
<path d="M16.1171 23.1814C13.5415 23.1814 11.4453 21.0852 11.4453 18.5096V12.3931C11.4453 12.1866 11.6123 12.0195 11.8189 12.0195C12.0255 12.0195 12.1925 12.1866 12.1925 12.3931V18.5096C12.1925 20.6734 13.9534 22.4342 16.1171 22.4342C17.1665 22.4342 18.1521 22.0262 18.893 21.2854C19.6338 20.5446 20.0418 19.559 20.0418 18.5096V18.3744C20.0418 18.1679 20.2088 18.0009 20.4154 18.0009C20.6219 18.0009 20.789 18.1679 20.789 18.3744V18.5096C20.789 19.7579 20.3032 20.9309 19.4208 21.8133C18.5385 22.6956 17.3654 23.1814 16.1171 23.1814Z" fill="white"/>
<path d="M11.8189 12.7683C11.6123 12.7683 11.4453 12.6013 11.4453 12.3947V9.64312C11.4453 9.43656 11.6123 9.26953 11.8189 9.26953C12.0255 9.26953 12.1925 9.43656 12.1925 9.64312V12.3947C12.1925 12.6013 12.0255 12.7683 11.8189 12.7683Z" fill="white"/>
<path d="M20.4155 14.9308H14.0377C13.8311 14.9308 13.6641 14.7637 13.6641 14.5572C13.6641 14.3506 13.8311 14.1836 14.0377 14.1836H20.4155C20.6221 14.1836 20.7891 14.3506 20.7891 14.5572C20.7891 14.7637 20.6221 14.9308 20.4155 14.9308Z" fill="white"/>
<path d="M9.29675 15.3708C9.7411 15.3708 10.1013 15.0106 10.1013 14.5663C10.1013 14.1219 9.7411 13.7617 9.29675 13.7617C8.8524 13.7617 8.49219 14.1219 8.49219 14.5663C8.49219 15.0106 8.8524 15.3708 9.29675 15.3708Z" fill="white"/>
<path d="M14.6615 29.5495C7.30944 29.5495 1.32812 23.5682 1.32812 16.2161C1.32812 8.86413 7.30944 2.88281 14.6615 2.88281C22.0135 2.88281 27.9948 8.86413 27.9948 16.2161C27.9948 23.5682 22.0135 29.5495 14.6615 29.5495ZM14.6615 3.63C7.72129 3.63 2.07531 9.27598 2.07531 16.2161C2.07531 23.1563 7.72129 28.8023 14.6615 28.8023C21.6016 28.8023 27.2476 23.1563 27.2476 16.2161C27.2476 9.27598 21.6016 3.63 14.6615 3.63Z" fill="white"/>
</svg>
