<svg width="165" height="40" viewBox="0 0 165 40" fill="none" xmlns="http://www.w3.org/2000/svg">
<path d="M54.0833 28.7188H49.5868C49.4873 28.7188 49.4089 28.7494 49.3477 28.8086C49.2865 28.8698 49.2578 28.9483 49.2578 29.0477C49.2578 29.1357 49.2884 29.2103 49.3477 29.2734C49.4089 29.3365 49.4873 29.3671 49.5868 29.3671H51.4783V34.7855C51.4783 34.883 51.5128 34.9672 51.5816 35.036C51.6505 35.1049 51.7346 35.1393 51.8322 35.1393C51.9374 35.1393 52.0215 35.1049 52.0865 35.036C52.1516 34.9672 52.186 34.883 52.186 34.7855V29.3671H54.0852C54.1847 29.3671 54.2631 29.3346 54.3243 29.2734C54.3855 29.2103 54.4142 29.1357 54.4142 29.0477C54.4142 28.9502 54.3836 28.8698 54.3243 28.8086C54.265 28.7474 54.1847 28.7188 54.0852 28.7188H54.0833Z" fill="#121212"/>
<path d="M63.7958 28.9578C63.7346 28.7991 63.6255 28.7188 63.4668 28.7188C63.308 28.7188 63.1933 28.7972 63.1206 28.9578L60.7356 34.6306C60.6859 34.7453 60.6935 34.8582 60.7566 34.971C60.8198 35.0839 60.9192 35.1393 61.0569 35.1393C61.122 35.1393 61.1851 35.1221 61.2463 35.0858C61.3075 35.0513 61.3495 34.9978 61.3782 34.9251L61.9099 33.6418H65.016L65.54 34.9251C65.5726 34.9901 65.6204 35.0437 65.6797 35.08C65.739 35.1183 65.8059 35.1374 65.8767 35.1374C66.0029 35.1374 66.1004 35.0839 66.1693 34.9768C66.2381 34.8697 66.2439 34.7568 66.1903 34.6363L63.7977 28.9559L63.7958 28.9578ZM62.1586 33.0431L63.4744 29.8663L64.7712 33.0431H62.1586Z" fill="#121212"/>
<path d="M77.6919 34.4565H74.5514V29.0726C74.5514 28.9731 74.517 28.8909 74.4481 28.822C74.3793 28.7532 74.2951 28.7188 74.1976 28.7188C74.1 28.7188 74.0159 28.7532 73.947 28.822C73.8782 28.8909 73.8438 28.9731 73.8438 29.0726V34.7874C73.8438 34.8907 73.8782 34.9768 73.947 35.0418C74.0159 35.1068 74.0981 35.1393 74.1976 35.1393H77.6919C77.7913 35.1393 77.8736 35.1068 77.9424 35.0418C78.0113 34.9768 78.0457 34.8926 78.0457 34.7951C78.0457 34.7013 78.0113 34.6229 77.9424 34.556C77.8736 34.491 77.7913 34.4565 77.6919 34.4565Z" fill="#121212"/>
<path d="M89.9254 29.3843C90.0248 29.3843 90.1071 29.3518 90.1721 29.2887C90.2371 29.2256 90.2696 29.1472 90.2696 29.0554C90.2696 28.9559 90.2371 28.8756 90.1721 28.8125C90.1051 28.7494 90.0248 28.7188 89.9254 28.7188H86.1116C86.0065 28.7188 85.9223 28.7513 85.8573 28.8163C85.7922 28.8813 85.7578 28.9674 85.7578 29.0707V34.7855C85.7578 34.8888 85.7903 34.9748 85.8573 35.0399C85.9223 35.1049 86.0084 35.1374 86.1116 35.1374H89.9254C90.0248 35.1374 90.1071 35.1049 90.1721 35.0418C90.2371 34.9787 90.2696 34.8983 90.2696 34.7989C90.2696 34.7052 90.2371 34.6268 90.1721 34.5636C90.1051 34.5005 90.0248 34.4699 89.9254 34.4699H86.4636V32.2417H88.971C89.0742 32.2417 89.1603 32.2111 89.2253 32.148C89.2904 32.0849 89.3248 32.0046 89.3248 31.9051C89.3248 31.8114 89.2923 31.733 89.2253 31.6661C89.1584 31.5991 89.0742 31.5685 88.971 31.5685H86.4636V29.3824H89.9254V29.3843Z" fill="#121212"/>
<path d="M102.951 28.7207C102.848 28.7207 102.762 28.7532 102.697 28.8182C102.632 28.8832 102.597 28.9693 102.597 29.0726V33.8904L98.7739 28.8507C98.7031 28.7627 98.6113 28.7188 98.5023 28.7188C98.3932 28.7188 98.3129 28.7513 98.2479 28.8163C98.1829 28.8813 98.1484 28.9674 98.1484 29.0707V34.7855C98.1484 34.8888 98.181 34.9748 98.2479 35.0399C98.3129 35.1049 98.399 35.1374 98.5023 35.1374C98.6017 35.1374 98.684 35.1049 98.7528 35.0399C98.8217 34.9748 98.8561 34.8888 98.8561 34.7855V29.9753L102.679 35.015C102.712 35.059 102.754 35.0896 102.802 35.1087C102.852 35.1279 102.901 35.1374 102.949 35.1374C103.048 35.1374 103.131 35.1049 103.2 35.0399C103.268 34.9748 103.303 34.8888 103.303 34.7855V29.0707C103.303 28.9674 103.268 28.8813 103.2 28.8163C103.131 28.7513 103.047 28.7188 102.949 28.7188L102.951 28.7207Z" fill="#121212"/>
<path d="M115.755 28.7188H111.259C111.159 28.7188 111.081 28.7494 111.02 28.8086C110.958 28.8698 110.93 28.9483 110.93 29.0477C110.93 29.1357 110.96 29.2103 111.02 29.2734C111.081 29.3365 111.159 29.3671 111.259 29.3671H113.15V34.7855C113.15 34.883 113.185 34.9672 113.253 35.036C113.322 35.1049 113.407 35.1393 113.504 35.1393C113.607 35.1393 113.693 35.1049 113.758 35.036C113.823 34.9672 113.858 34.883 113.858 34.7855V29.3671H115.757C115.857 29.3671 115.935 29.3346 115.996 29.2734C116.057 29.2103 116.086 29.1357 116.086 29.0477C116.086 28.9502 116.055 28.8698 115.996 28.8086C115.935 28.7474 115.857 28.7188 115.757 28.7188H115.755Z" fill="#121212"/>
<path d="M73.7304 21.8051C73.5028 21.8051 73.1719 21.6158 73.1719 21.3174V5.57292C73.1719 5.28029 73.4167 5.05078 73.7304 5.05078H79.2501C82.7903 5.05078 84.5843 6.74725 84.5843 10.0943V17.5668C84.5843 19.6095 82.9376 21.807 79.3228 21.807H73.7304V21.8051ZM79.3228 20.7226C81.3807 20.7226 83.4655 19.6381 83.4655 17.5649V10.0924C83.4655 7.37841 82.1649 6.16774 79.2501 6.16774H74.2888V20.7226H79.3228Z" fill="#121212"/>
<path d="M112.141 21.9925C110.718 21.9485 109.609 21.4302 109.073 21.1241C108.44 20.7359 107.612 20.1143 107.252 19.3359C107.178 19.1331 107.199 18.9438 107.31 18.7908C107.417 18.6435 107.589 18.5574 107.773 18.5632C107.922 18.567 108.062 18.632 108.169 18.7449L108.182 18.7602L108.211 18.7984C108.584 19.4736 110.02 20.843 112.174 20.9099C113.354 20.9463 115.398 20.6116 115.829 17.9588C116.077 16.27 115.069 15.0708 112.241 13.6842L111.273 13.2175C108.936 12.1082 106.918 11.15 106.994 8.65594C107.033 7.40319 107.633 6.38569 108.779 5.63022C109.659 5.09469 110.856 4.8231 112.156 4.86327C114.528 4.93595 115.656 6.39526 116.138 7.01876C116.274 7.19855 116.299 7.41467 116.205 7.59828C116.108 7.78763 115.896 7.90429 115.666 7.89664C115.586 7.89473 115.505 7.87752 115.429 7.845L115.339 7.80675L115.28 7.73025C114.813 7.12587 113.945 6.00317 112.126 5.94771C111.127 5.91711 110.129 6.14471 109.389 6.57313C108.932 6.85045 108.153 7.495 108.117 8.69228C108.062 10.4939 109.611 11.215 111.755 12.2134L112.721 12.6418C115.173 13.9194 117.372 15.4648 116.942 18.129C116.699 19.5539 116.06 20.6039 115.042 21.2523C114.012 21.9083 112.898 22.0173 112.145 21.9944L112.141 21.9925Z" fill="#121212"/>
<path d="M49.8871 5.05859H49.7111C49.4608 5.05859 49.2578 5.26154 49.2578 5.51188V21.3424C49.2578 21.5928 49.4608 21.7957 49.7111 21.7957H49.8871C50.1374 21.7957 50.3403 21.5928 50.3403 21.3424V5.51188C50.3403 5.26154 50.1374 5.05859 49.8871 5.05859Z" fill="#121212"/>
<path d="M126.895 5.05859H126.719C126.469 5.05859 126.266 5.26154 126.266 5.51188V21.3424C126.266 21.5928 126.469 21.7957 126.719 21.7957H126.895C127.145 21.7957 127.348 21.5928 127.348 21.3424V5.51188C127.348 5.26154 127.145 5.05859 126.895 5.05859Z" fill="#121212"/>
<path d="M121.102 5.51137V5.68734C121.102 5.93768 121.305 6.14062 121.555 6.14062L132.061 6.14063C132.311 6.14063 132.514 5.93768 132.514 5.68734V5.51137C132.514 5.26103 132.311 5.05809 132.061 5.05809L121.555 5.05809C121.305 5.05809 121.102 5.26103 121.102 5.51137Z" fill="#121212"/>
<path d="M159.837 10.7773V21.3406C159.837 21.5892 159.632 21.7939 159.383 21.7939H159.211C158.962 21.7939 158.758 21.5892 158.758 21.3406V10.7773L159.297 11.485L159.837 10.7773Z" fill="#121212"/>
<path d="M159.974 12.3784L159.833 12.5639V13.9849L159.293 13.2734L158.754 12.5658L158.612 12.3803L153.68 5.89274C153.525 5.69383 153.567 5.40694 153.766 5.25776L153.902 5.15257C154.101 4.99765 154.388 5.03973 154.542 5.23864L158.752 10.7794L159.291 11.4871L159.831 12.1986L159.972 12.3803L159.974 12.3784Z" fill="#121212"/>
<path d="M164.904 5.89075L159.971 12.3783L159.83 12.5638L159.29 13.2715L158.751 13.9829V12.5619L158.609 12.3764L158.751 12.1947L159.29 11.4832L159.83 10.7755L164.041 5.23473C164.196 5.03582 164.481 4.99374 164.68 5.14866L164.816 5.25386C165.015 5.40304 165.057 5.68993 164.902 5.88884L164.904 5.89075Z" fill="#121212"/>
<path d="M57.1294 5.60376C57.1294 5.30483 56.8871 5.0625 56.5881 5.0625C56.2892 5.0625 56.0469 5.30483 56.0469 5.60376V21.2584C56.0469 21.5573 56.2892 21.7996 56.5881 21.7996C56.8871 21.7996 57.1294 21.5573 57.1294 21.2584V5.60376Z" fill="#121212"/>
<path d="M67.4599 21.0976V21.2564C67.4599 21.5566 67.2151 21.7957 66.9148 21.7957C66.7293 21.7957 66.5648 21.7001 66.4711 21.5605L56.1354 5.90205C55.9728 5.65341 56.0398 5.31679 56.2903 5.14849C56.3802 5.0892 56.4854 5.05859 56.5906 5.05859C56.7627 5.05859 56.9349 5.14466 57.0401 5.30341L66.3773 19.4547L67.4618 21.0976H67.4599Z" fill="#121212"/>
<path d="M67.4594 5.60185V21.2545C67.4594 21.5548 67.2146 21.7939 66.9144 21.7939C66.7288 21.7939 66.5643 21.6982 66.4706 21.5586C66.4113 21.4726 66.375 21.3674 66.375 21.2545V5.60185C66.375 5.30157 66.6198 5.0625 66.9144 5.0625C67.2089 5.0625 67.4594 5.30349 67.4594 5.60185Z" fill="#121212"/>
<path d="M91.3775 5.51188V17.0238H90.2969V5.51188C90.2969 5.26324 90.5015 5.05859 90.7502 5.05859H90.9223C91.1767 5.05859 91.3756 5.26324 91.3756 5.51188H91.3775Z" fill="#121212"/>
<path d="M101.706 5.51188V17.0238H100.625V5.51188C100.625 5.26324 100.83 5.05859 101.078 5.05859H101.25C101.505 5.05859 101.704 5.26324 101.704 5.51188H101.706Z" fill="#121212"/>
<path d="M101.707 17.0234V17.0273C101.707 19.659 99.571 21.7954 96.9393 21.7954H95.065C92.4294 21.7954 90.2969 19.659 90.2969 17.0273V17.0234H91.3775V17.0273C91.3775 18.5248 92.2707 19.8139 93.5598 20.3896C94.0226 20.5981 94.5314 20.7109 95.0669 20.7109H97.0407C97.5399 20.6975 98.0161 20.5847 98.4464 20.3896C99.7298 19.8139 100.625 18.5248 100.625 17.0273V17.0234H101.709H101.707Z" fill="#121212"/>
<path d="M144.073 5.05859V6.14304H138.274C138.025 6.14304 137.82 5.93839 137.82 5.68975V5.51188C137.82 5.26324 138.025 5.05859 138.274 5.05859H144.073Z" fill="#121212"/>
<path d="M144.073 14.2969V15.3775H138.274C138.025 15.3775 137.82 15.1728 137.82 14.9242V14.7521C137.82 14.4977 138.025 14.2988 138.274 14.2988H144.073V14.2969Z" fill="#121212"/>
<path d="M138.45 5.05859H138.274C138.023 5.05859 137.82 5.26154 137.82 5.51188V21.3424C137.82 21.5928 138.023 21.7957 138.274 21.7957H138.45C138.7 21.7957 138.903 21.5928 138.903 21.3424V5.51188C138.903 5.26154 138.7 5.05859 138.45 5.05859Z" fill="#121212"/>
<path d="M148.242 21.6576L148.092 21.7398C147.874 21.8622 147.593 21.7857 147.475 21.5677L144.026 15.3785L143.722 14.8334L143.422 14.2979H144.076V14.2941C144.267 14.2941 144.453 14.2807 144.638 14.2539L144.942 14.799L145.197 15.258L148.414 21.0436C148.54 21.2617 148.463 21.539 148.242 21.6614V21.6576Z" fill="#121212"/>
<path d="M149.236 10.2169C149.236 12.6803 147.507 14.7401 145.199 15.2527C144.841 15.335 144.464 15.3751 144.078 15.3751V14.2907C144.269 14.2907 144.455 14.2773 144.64 14.2505C146.624 13.9789 148.152 12.2767 148.152 10.2169C148.152 7.96574 146.327 6.14304 144.078 6.14304V5.05859C146.928 5.05859 149.236 7.3671 149.236 10.2169Z" fill="#121212"/>
<path d="M23.0859 30.4382C19.2224 30.4382 16.0781 27.2939 16.0781 23.4304V14.2557C16.0781 13.9459 16.3287 13.6953 16.6385 13.6953C16.9484 13.6953 17.1989 13.9459 17.1989 14.2557V23.4304C17.1989 26.6761 19.8402 29.3174 23.0859 29.3174C24.6599 29.3174 26.1384 28.7054 27.2496 27.5941C28.3608 26.4829 28.9728 25.0045 28.9728 23.4304V23.2277C28.9728 22.9178 29.2234 22.6673 29.5332 22.6673C29.8431 22.6673 30.0936 22.9178 30.0936 23.2277V23.4304C30.0936 25.3028 29.3649 27.0624 28.0414 28.386C26.7179 29.7095 24.9583 30.4382 23.0859 30.4382Z" fill="#121212"/>
<path d="M16.6385 14.8146C16.3287 14.8146 16.0781 14.564 16.0781 14.2542V10.1268C16.0781 9.81696 16.3287 9.56641 16.6385 9.56641C16.9484 9.56641 17.1989 9.81696 17.1989 10.1268V14.2542C17.1989 14.564 16.9484 14.8146 16.6385 14.8146Z" fill="#121212"/>
<path d="M29.5334 18.07H19.9666C19.6568 18.07 19.4062 17.8195 19.4062 17.5096C19.4062 17.1998 19.6568 16.9492 19.9666 16.9492H29.5334C29.8433 16.9492 30.0938 17.1998 30.0938 17.5096C30.0938 17.8195 29.8433 18.07 29.5334 18.07Z" fill="#121212"/>
<path d="M12.8475 18.7184C13.514 18.7184 14.0543 18.1781 14.0543 17.5115C14.0543 16.845 13.514 16.3047 12.8475 16.3047C12.1809 16.3047 11.6406 16.845 11.6406 17.5115C11.6406 18.1781 12.1809 18.7184 12.8475 18.7184Z" fill="#121212"/>
<path d="M20.875 40C9.84698 40 0.875 31.028 0.875 20C0.875 8.97198 9.84698 0 20.875 0C31.903 0 40.875 8.97198 40.875 20C40.875 31.028 31.903 40 20.875 40ZM20.875 1.12078C10.4647 1.12078 1.99578 9.58975 1.99578 20C1.99578 30.4102 10.4647 38.8792 20.875 38.8792C31.2852 38.8792 39.7542 30.4102 39.7542 20C39.7542 9.58975 31.2852 1.12078 20.875 1.12078Z" fill="#121212"/>
</svg>
