<svg width="152" height="32" viewBox="0 0 152 32" fill="none" xmlns="http://www.w3.org/2000/svg">
<g clip-path="url(#clip0_36198_641)">
<path d="M14.4537 32C16.6718 32 18.4699 30.2091 18.4699 28C18.4699 25.7909 16.6718 24 14.4537 24C12.2356 24 10.4375 25.7909 10.4375 28C10.4375 30.2091 12.2356 32 14.4537 32Z" fill="#00C0FF"/>
<path d="M14.4537 7.99999C16.6718 7.99999 18.4699 6.20913 18.4699 3.99999C18.4699 1.79086 16.6718 0 14.4537 0C12.2356 0 10.4375 1.79086 10.4375 3.99999C10.4375 6.20913 12.2356 7.99999 14.4537 7.99999Z" fill="#008CE6"/>
<path d="M14.4537 32C16.6718 32 18.4699 30.2091 18.4699 28C18.4699 25.7909 16.6718 24 14.4537 24C12.2356 24 10.4375 25.7909 10.4375 28C10.4375 30.2091 12.2356 32 14.4537 32Z" fill="#FF9A5C"/>
<path d="M14.4537 7.99999C16.6718 7.99999 18.4699 6.20913 18.4699 3.99999C18.4699 1.79086 16.6718 0 14.4537 0C12.2356 0 10.4375 1.79086 10.4375 3.99999C10.4375 6.20913 12.2356 7.99999 14.4537 7.99999Z" fill="#413FFF"/>
<path d="M6.02401 6.53516L26.8928 18.5351L22.8766 25.4638L2.00781 13.4638L6.02401 6.53516Z" fill="url(#paint0_linear_36198_641)"/>
<path d="M24.8834 26C27.1015 26 28.8996 24.2091 28.8996 22C28.8996 19.7909 27.1015 18 24.8834 18C22.6653 18 20.8672 19.7909 20.8672 22C20.8672 24.2091 22.6653 26 24.8834 26Z" fill="#FF47A7"/>
<path d="M4.01619 14C6.23428 14 8.03239 12.2091 8.03239 9.99999C8.03239 7.79086 6.23428 6 4.01619 6C1.79811 6 0 7.79086 0 9.99999C0 12.2091 1.79811 14 4.01619 14Z" fill="#8738FF"/>
<path d="M2.00781 18.5351L22.8766 6.53516L26.8928 13.4638L6.02401 25.4638L2.00781 18.5351Z" fill="url(#paint1_linear_36198_641)"/>
<path d="M24.8834 14C27.1015 14 28.8996 12.2091 28.8996 9.99999C28.8996 7.79086 27.1015 6 24.8834 6C22.6653 6 20.8672 7.79086 20.8672 9.99999C20.8672 12.2091 22.6653 14 24.8834 14Z" fill="#0074D9"/>
<path d="M4.01619 26C6.23428 26 8.03239 24.2091 8.03239 22C8.03239 19.7909 6.23428 18 4.01619 18C1.79811 18 0 19.7909 0 22C0 24.2091 1.79811 26 4.01619 26Z" fill="#00A38C"/>
<path fill-rule="evenodd" clip-rule="evenodd" d="M14.4547 20.6208L6.42188 16.0018L14.4547 11.3828L22.4874 16.0018L14.4547 20.6208Z" fill="#008ED0"/>
<path d="M49.3159 9.85938H45.1924L42.8065 13.4894L40.3942 9.85938H36.2726L40.7078 16.1574L35.9609 22.8442H40.0832L42.8065 18.8229L45.5041 22.8442H49.6263L44.8544 16.1317L49.3159 9.85938Z" fill="white"/>
<path d="M57.7144 9.70703C56.3534 9.70703 55.1434 10.2481 54.281 11.2351V9.8619H50.8984V22.8467H54.5657V16.3675C54.5657 14.2707 55.7577 13.116 57.9213 13.116H58.9398V9.88503L58.8788 9.86639C58.5164 9.75458 58.1687 9.70703 57.7144 9.70703Z" fill="white"/>
<path d="M66.509 9.57422C62.7017 9.57422 59.7188 12.5565 59.7188 16.3645C59.7188 20.2354 62.7711 23.1547 66.8194 23.1547C68.7266 23.1547 70.4693 22.5032 71.9993 21.2193L72.0565 21.1711L70.5181 18.6431L70.4417 18.7029C69.3184 19.5736 68.2003 19.9791 66.9228 19.9791C65.1313 19.9791 63.868 19.1199 63.4387 17.6162H72.3752L72.3913 17.5494C72.4466 17.3149 72.6265 16.4827 72.6265 15.6146C72.6258 12.1144 70.0535 9.57422 66.509 9.57422ZM66.3792 12.5693C67.9041 12.5693 68.9939 13.5576 69.0588 14.9842H63.4368C63.839 13.4915 64.9578 12.5693 66.3792 12.5693Z" fill="white"/>
<path d="M84.0767 17.9729C83.208 19.2016 82.2518 19.7741 81.0681 19.7741C79.1686 19.7741 77.7903 18.3302 77.7903 16.3414C77.7903 14.3674 79.1686 12.9344 81.0681 12.9344C82.2903 12.9344 83.2459 13.514 84.0755 14.7593L84.1269 14.8371L86.6921 12.8451L86.6561 12.7802C85.529 10.7451 83.4727 9.57812 81.0154 9.57812C77.1207 9.57812 74.0703 12.5495 74.0703 16.3427C74.0703 20.1648 77.1213 23.1586 81.0154 23.1586C83.4637 23.1586 85.5194 21.9821 86.6561 19.9303L86.6921 19.8647L84.1281 17.901L84.0767 17.9729Z" fill="white"/>
<path d="M95.4488 9.70703C94.0878 9.70703 92.8778 10.2481 92.0154 11.2351V9.8619H88.6328V22.8467H92.3001V16.3675C92.3001 14.2707 93.4921 13.116 95.6557 13.116H96.6742V9.88503L96.6131 9.86639C96.2507 9.75458 95.9024 9.70703 95.4488 9.70703Z" fill="white"/>
<path d="M106.362 17.3995C106.362 18.774 105.397 19.7713 104.068 19.7713C102.686 19.7713 101.722 18.7959 101.722 17.3995V9.85938H98.0547V17.1155C98.0547 20.6716 100.527 23.1552 104.068 23.1552C107.578 23.1552 110.03 20.6716 110.03 17.1155V9.85938H106.363V17.3995H106.362Z" fill="white"/>
<path d="M116.425 9.85938H112.758V22.8442H116.425V9.85938Z" fill="white"/>
<path d="M114.578 3.02734C113.282 3.02734 112.266 4.02015 112.266 5.28798C112.266 6.54103 113.282 7.52291 114.578 7.52291C115.889 7.52291 116.917 6.54103 116.917 5.28798C116.917 4.02079 115.889 3.02734 114.578 3.02734Z" fill="white"/>
<path d="M125.949 19.8508C124.319 19.8508 123.655 19.2982 123.655 17.9449V12.9847H127.279V9.86045H123.655V6.625H119.988V9.86045H117.969V12.9847H119.988V18.2553C119.988 21.4155 121.838 23.1563 125.199 23.1563C126 23.1563 126.772 23.0567 127.627 22.8434L127.692 22.8267V19.7403L127.257 19.7743C126.737 19.8148 126.288 19.8508 125.949 19.8508Z" fill="white"/>
<path d="M135.532 9.57422C131.725 9.57422 128.742 12.5565 128.742 16.3645C128.742 20.2354 131.794 23.1547 135.843 23.1547C137.75 23.1547 139.493 22.5032 141.023 21.2193L141.08 21.1711L139.542 18.6431L139.465 18.7029C138.343 19.5736 137.224 19.9791 135.947 19.9791C134.155 19.9791 132.891 19.1199 132.463 17.6162H141.399L141.415 17.5494C141.47 17.3155 141.651 16.4827 141.651 15.6146C141.65 12.1144 139.077 9.57422 135.532 9.57422ZM135.403 12.5693C136.928 12.5693 138.018 13.5576 138.084 14.9842H132.462C132.862 13.4915 133.981 12.5693 135.403 12.5693Z" fill="white"/>
<path d="M151.856 9.86639C151.494 9.75458 151.145 9.70703 150.692 9.70703C149.331 9.70703 148.121 10.2481 147.258 11.2351V9.8619H143.875V22.8467H147.543V16.3675C147.543 14.2707 148.735 13.116 150.899 13.116H151.917V9.88503L151.856 9.86639Z" fill="white"/>
</g>
<defs>
<linearGradient id="paint0_linear_36198_641" x1="2.00784" y1="15.9995" x2="26.8927" y2="15.9995" gradientUnits="userSpaceOnUse">
<stop stop-color="#A88CFF"/>
<stop offset="0.8639" stop-color="#F3A1FF"/>
<stop offset="1" stop-color="#FFA4FF"/>
</linearGradient>
<linearGradient id="paint1_linear_36198_641" x1="2.00784" y1="15.9995" x2="26.8927" y2="15.9995" gradientUnits="userSpaceOnUse">
<stop stop-color="#FFA4FF"/>
<stop offset="0.00366276" stop-color="#00FFA0"/>
<stop offset="0.2095" stop-color="#00F8B4"/>
<stop offset="1" stop-color="#00DDFF"/>
</linearGradient>
<clipPath id="clip0_36198_641">
<rect width="152" height="32" fill="white"/>
</clipPath>
</defs>
</svg>
