<svg width="48" height="48" viewBox="0 0 48 48" fill="none" xmlns="http://www.w3.org/2000/svg">
<rect width="48" height="48" fill="white"/>
<path d="M24.6805 48C28.0077 48 30.7048 45.3137 30.7048 42C30.7048 38.6863 28.0077 36 24.6805 36C21.3534 36 18.6562 38.6863 18.6562 42C18.6562 45.3137 21.3534 48 24.6805 48Z" fill="#00C0FF"/>
<path d="M24.6805 12C28.0077 12 30.7048 9.3137 30.7048 5.99999C30.7048 2.68629 28.0077 0 24.6805 0C21.3534 0 18.6562 2.68629 18.6562 5.99999C18.6562 9.3137 21.3534 12 24.6805 12Z" fill="#008CE6"/>
<path d="M24.6805 48C28.0077 48 30.7048 45.3137 30.7048 42C30.7048 38.6863 28.0077 36 24.6805 36C21.3534 36 18.6562 38.6863 18.6562 42C18.6562 45.3137 21.3534 48 24.6805 48Z" fill="#FF9A5C"/>
<path d="M24.6805 12C28.0077 12 30.7048 9.3137 30.7048 5.99999C30.7048 2.68629 28.0077 0 24.6805 0C21.3534 0 18.6562 2.68629 18.6562 5.99999C18.6562 9.3137 21.3534 12 24.6805 12Z" fill="#413FFF"/>
<path d="M12.0321 9.80078L43.3353 27.8008L37.311 38.1937L6.00781 20.1937L12.0321 9.80078Z" fill="url(#paint0_linear_36228_1882)"/>
<path d="M40.329 39C43.6561 39 46.3533 36.3137 46.3533 33C46.3533 29.6863 43.6561 27 40.329 27C37.0019 27 34.3047 29.6863 34.3047 33C34.3047 36.3137 37.0019 39 40.329 39Z" fill="#FF47A7"/>
<path d="M9.02429 21C12.3514 21 15.0486 18.3137 15.0486 15C15.0486 11.6863 12.3514 9 9.02429 9C5.69717 9 3 11.6863 3 15C3 18.3137 5.69717 21 9.02429 21Z" fill="#8738FF"/>
<path d="M6.00781 27.8008L37.311 9.80078L43.3353 20.1937L12.0321 38.1937L6.00781 27.8008Z" fill="url(#paint1_linear_36228_1882)"/>
<path d="M40.329 21C43.6561 21 46.3533 18.3137 46.3533 15C46.3533 11.6863 43.6561 9 40.329 9C37.0019 9 34.3047 11.6863 34.3047 15C34.3047 18.3137 37.0019 21 40.329 21Z" fill="#0074D9"/>
<path d="M9.02429 39C12.3514 39 15.0486 36.3137 15.0486 33C15.0486 29.6863 12.3514 27 9.02429 27C5.69717 27 3 29.6863 3 33C3 36.3137 5.69717 39 9.02429 39Z" fill="#00A38C"/>
<path fill-rule="evenodd" clip-rule="evenodd" d="M24.682 30.9352L12.6328 24.0066L24.682 17.0781L36.7311 24.0066L24.682 30.9352Z" fill="#008ED0"/>
<defs>
<linearGradient id="paint0_linear_36228_1882" x1="6.00785" y1="23.9972" x2="43.3352" y2="23.9972" gradientUnits="userSpaceOnUse">
<stop stop-color="#A88CFF"/>
<stop offset="0.8639" stop-color="#F3A1FF"/>
<stop offset="1" stop-color="#FFA4FF"/>
</linearGradient>
<linearGradient id="paint1_linear_36228_1882" x1="6.00785" y1="23.9972" x2="43.3352" y2="23.9972" gradientUnits="userSpaceOnUse">
<stop stop-color="#FFA4FF"/>
<stop offset="0.00366276" stop-color="#00FFA0"/>
<stop offset="0.2095" stop-color="#00F8B4"/>
<stop offset="1" stop-color="#00DDFF"/>
</linearGradient>
</defs>
</svg>
